<?xml version="1.0" encoding="UTF-8" standalone="no"?>
<!-- Created with Inkscape (http://www.inkscape.org/) -->

<svg
   width="208.16374mm"
   height="113.43832mm"
   viewBox="0 0 208.16374 113.43832"
   version="1.1"
   id="svg5"
   inkscape:export-filename="bitmap.svg"
   inkscape:export-xdpi="241.82304"
   inkscape:export-ydpi="241.82304"
   xmlns:inkscape="http://www.inkscape.org/namespaces/inkscape"
   xmlns:sodipodi="http://sodipodi.sourceforge.net/DTD/sodipodi-0.dtd"
   xmlns="http://www.w3.org/2000/svg"
   xmlns:svg="http://www.w3.org/2000/svg">
  <sodipodi:namedview
     id="namedview7"
     pagecolor="#ffffff"
     bordercolor="#000000"
     borderopacity="0.25"
     inkscape:showpageshadow="2"
     inkscape:pageopacity="0.0"
     inkscape:pagecheckerboard="0"
     inkscape:deskcolor="#d1d1d1"
     inkscape:document-units="mm"
     showgrid="false" />
  <defs
     id="defs2">
    <inkscape:path-effect
       effect="spiro"
       id="path-effect347"
       is_visible="true"
       lpeversion="1" />
    <inkscape:path-effect
       effect="spiro"
       id="path-effect289"
       is_visible="true"
       lpeversion="1" />
    <inkscape:path-effect
       effect="spiro"
       id="path-effect285"
       is_visible="true"
       lpeversion="1" />
  </defs>
  <g
     inkscape:label="Layer 1"
     inkscape:groupmode="layer"
     id="layer1"
     transform="translate(-1.640742,-0.96821498)">
    <path
       style="fill:#800000;stroke-width:0"
       d="M 19.60788,5.1599684 C 14.420457,8.6763694 10.834779,14.193091 8.6561825,20.069156 6.477586,25.945222 5.5947244,32.213239 4.90197,38.441764 3.4232229,51.737115 2.7461776,65.107953 1.5479905,78.431519 1.139337,82.975652 0.66949874,87.532712 0.86685228,92.090913 1.0642058,96.649114 1.958605,101.24963 4.1279746,105.26335 c 0.4431689,0.81994 0.9400868,1.61548 1.5479906,2.32199 1.072404,1.24636 2.4741534,2.18969 3.9938064,2.81747 1.5196534,0.62778 3.1557814,0.94725 4.7968044,1.04971 3.282047,0.2049 6.549438,-0.44339 9.785275,-1.0292 20.98974,-3.79996 42.416091,-5.08365 63.725609,-4.12797 25.37697,1.13809 50.51243,5.4308 75.85154,7.22395 7.45357,0.52746 15.05046,0.82646 22.29593,-1.00032 3.62274,-0.91339 7.13041,-2.36293 10.21301,-4.47388 3.08259,-2.11095 5.73204,-4.89815 7.48081,-8.199712 2.23123,-4.212424 2.92411,-9.084678 2.93571,-13.851519 0.0116,-4.766841 -0.6197,-9.510122 -0.87172,-14.27031 -0.88451,-16.706649 2.90417,-33.322745 3.09598,-50.051692 0.0351,-3.063922 -0.0694,-6.219418 -1.28999,-9.029945 -0.93806,-2.159998 -2.50902,-4.0185594 -4.39105,-5.434009 C 201.41564,5.7924633 199.22961,4.8091364 196.9598,4.1818469 192.42018,2.9272679 187.62286,3.0827216 182.92088,3.3539795 143.65962,5.6189696 103.80646,15.225873 65.531597,6.1919619 57.832695,4.374811 50.278965,1.811992 42.426404,0.85678408 38.500124,0.37918013 34.504425,0.31063406 30.600723,0.94694822 26.697021,1.5832624 22.881796,2.940677 19.60788,5.1599684 Z"
       id="path283"
       inkscape:path-effect="#path-effect285"
       inkscape:original-d="M 19.60788,5.1599684 C 4.299709,4.8157058 9.8042043,27.348098 4.90197,38.441764 -2.6458333e-4,49.535431 2.6662483,65.101866 1.5479905,78.431519 0.42973278,91.761171 3.2682444,96.319675 4.1279746,105.26335 c 0.8597302,8.94368 1.0322584,1.54826 1.5479906,2.32199 0.5157321,0.77373 12.3841888,1.89225 18.5758858,2.83798 6.191697,0.94573 42.484005,-2.75172 63.725609,-4.12797 21.2416,-1.37626 50.56795,4.81623 75.85154,7.22395 25.28358,2.40772 26.6601,-9.11568 39.98975,-13.673912 13.32965,-4.558236 1.37626,-18.747621 2.06399,-28.121829 0.68773,-9.374206 2.06425,-33.36753 3.09598,-50.051692 1.03173,-16.6841622 -0.85973,-6.019698 -1.28999,-9.029945 C 207.25846,9.6316764 191.17709,6.4502249 182.92088,3.3539795 174.66466,0.25773383 104.66162,5.2462324 65.531597,6.1919619 26.401574,7.1376917 34.916051,5.5042307 19.60788,5.1599684 Z" />
    <path
       style="fill:#008080;stroke-width:0"
       d="M 11.35193,101.90938 C 10.374712,101.86993 9.4146182,101.5561 8.5827038,101.04187 7.7507895,100.52764 7.0462291,99.816471 6.5081567,98.999776 5.4320118,97.366386 5.0399573,95.34798 5.1387185,93.394446 5.336241,89.487377 7.3490289,85.945599 8.7719462,82.301494 12.165581,73.61036 12.259128,64.020471 12.000569,54.693858 11.74201,45.367245 11.191087,35.892889 13.415918,26.831835 c 0.993424,-4.04591 2.544597,-7.976424 4.811835,-11.471551 2.267239,-3.495126 5.266647,-6.5477733 8.86208,-8.6523251 4.530558,-2.6519176 10.02371,-3.7226702 15.166755,-2.670193 5.143045,1.0524771 9.859397,4.290079 12.439075,8.8621551 2.254429,3.995622 2.821307,8.778314 2.33245,13.339944 -0.488857,4.56163 -1.971458,8.955229 -3.609481,13.240591 -1.638023,4.285362 -3.446087,8.520731 -4.631371,12.952723 -1.185283,4.431991 -1.731553,9.122331 -0.799555,13.614416 1.137216,5.481208 4.375366,10.291317 6.074129,15.625274 0.849381,2.666979 1.308345,5.509266 0.878884,8.275091 -0.429461,2.765825 -1.823359,5.45244 -4.115031,7.059444 -2.055072,1.441091 -4.666913,1.917283 -7.173098,1.779068 -2.506185,-0.138215 -4.942847,-0.846056 -7.338143,-1.59614 -2.395295,-0.750083 -4.792228,-1.550971 -7.279857,-1.885285 -2.487629,-0.334314 -5.107612,-0.173699 -7.362723,0.928363 -1.797193,0.878279 -3.261519,2.296335 -4.855719,3.504559 -0.7971,0.604111 -1.636735,1.161671 -2.552221,1.564421 -0.915486,0.40274 -1.912651,0.64734 -2.911997,0.60699 z"
       id="path287"
       inkscape:path-effect="#path-effect289"
       inkscape:original-d="M 11.35193,101.90938 C 7.9116869,103.8011 9.6322056,88.837719 8.7719462,82.301494 7.9116869,75.76527 11.868192,45.321987 13.415918,26.831835 14.963644,8.3416843 22.532126,13.416182 27.089833,6.7079589 c 4.557709,-6.70822348333 18.404151,4.1282391 27.60583,6.1919621 9.20168,2.063723 -4.471707,35.432048 -6.707957,53.147674 -2.23625,17.715627 1.892252,20.640138 2.837982,30.959809 0.945729,10.319676 -19.435617,-0.515732 -29.153821,-0.773994 -9.718205,-0.258262 -6.879693,3.78424 -10.319937,5.67597 z" />
    <path
       style="fill:#008080;stroke-width:0"
       d="m 80.495507,15.995902 c 10.88611,-3.440473 22.498103,-3.856174 33.906013,-3.404843 11.40792,0.451331 22.78961,1.740345 34.20557,1.598854 9.90893,-0.122813 19.77191,-1.3228 29.66982,-1.805989 4.7288,-0.230847 9.57452,-0.282415 14.06665,1.212756 2.24607,0.747586 4.37943,1.885452 6.14024,3.46762 1.76081,1.582167 3.13813,3.620999 3.78696,5.897559 0.60575,2.125383 0.56599,4.400259 0.12221,6.565262 -0.44378,2.165003 -1.27985,4.231862 -2.24798,6.218543 -1.93627,3.973361 -4.43392,7.724501 -5.61418,11.984044 -0.94357,3.405343 -1.00058,7.005203 -0.6309,10.519464 0.36968,3.514261 1.15616,6.969019 1.88044,10.427648 0.72428,3.458628 1.38985,6.947307 1.51194,10.478849 0.12208,3.531542 -0.31832,7.130139 -1.72949,10.369781 -1.8338,4.209876 -5.25189,7.625499 -9.24999,9.884052 -3.9981,2.258558 -8.55296,3.412638 -13.1264,3.824468 -9.14686,0.82366 -18.27477,-1.22809 -27.4173,-2.09859 -24.44398,-2.32741 -49.311124,3.79078 -73.529553,-0.258 -1.538253,-0.25716 -3.081216,-0.55826 -4.52712,-1.142828 -1.445904,-0.584566 -2.801799,-1.472967 -3.72883,-2.727148 -0.826036,-1.117545 -1.278868,-2.485649 -1.410609,-3.869082 -0.131742,-1.383433 0.04683,-2.783806 0.396174,-4.128873 0.698681,-2.690133 2.061442,-5.153306 3.078423,-7.739949 2.792074,-7.101509 2.916859,-14.961829 2.378591,-22.57349 -0.538268,-7.611661 -1.701566,-15.211821 -1.346597,-22.834229 0.148512,-3.189054 0.570817,-6.396496 1.681109,-9.389717 1.110293,-2.993221 2.949874,-5.775759 5.542847,-7.63818 1.852026,-1.330231 4.017718,-2.150829 6.191962,-2.837982 z"
       id="path345"
       inkscape:path-effect="#path-effect347"
       inkscape:original-d="m 80.495507,15.995902 c 2.063721,-0.946259 45.407983,-1.203728 68.111583,-1.805989 22.70359,-0.602261 19.78014,-1.203728 29.66982,-1.805989 9.88967,-0.602261 15.99616,7.052221 23.99385,10.577935 7.99768,3.525713 -5.15971,16.512164 -7.73995,24.767849 -2.58025,8.255683 0.68826,27.864094 1.03199,41.795742 0.34373,13.93165 -33.19553,7.740219 -49.79369,11.60993 -16.59817,3.86971 -49.01944,-0.17174 -73.529553,-0.258 -24.510113,-0.0863 -5.503701,-2.579717 -8.25595,-3.869976 -2.752248,-1.290257 1.376257,-10.491671 2.063988,-15.737904 0.687732,-5.246232 0.688261,-30.271547 1.031994,-45.407719 0.343734,-15.136173 4.816235,-11.351667 7.223956,-17.027897 2.407719,-5.676229 4.128238,-1.891723 6.191962,-2.837982 z" />
  </g>
</svg>
